<?xml version="1.0" encoding="UTF-8"?>
<svg id="Calque_2" data-name="Calque 2" xmlns="http://www.w3.org/2000/svg" viewBox="0 0 111 111.63">
  <defs>
    <style>
      .cls-1 {
        fill: #005cb9;
      }

      .cls-1, .cls-2 {
        stroke-width: 0px;
      }

      .cls-3 {
        font-family: OpenSansRoman-ExtraBold, 'Open Sans';
        font-size: 55.17px;
        font-variation-settings: 'wght' 800, 'wdth' 100;
        font-weight: 700;
      }

      .cls-3, .cls-2 {
        fill: #fff;
      }
    </style>
  </defs>
  <g id="Calque_1-2" data-name="Calque 1">
    <rect class="cls-1" y=".63" width="111" height="111" rx="20" ry="20"/>
    <g>
      <path class="cls-2" d="M41.14,65.11c0,2.44-.52,4.55-1.57,6.32-1.04,1.77-2.43,3.22-4.16,4.35-1.73,1.13-3.61,1.97-5.65,2.54v.21c4.11.52,7.28,1.77,9.53,3.75,2.24,1.98,3.36,4.8,3.36,8.44,0,2.82-.75,5.4-2.25,7.73-1.5,2.34-3.84,4.2-7.01,5.6-3.17,1.4-7.24,2.1-12.22,2.1-3.33,0-6.18-.25-8.52-.74-2.35-.49-4.63-1.17-6.83-2.04v-11.55c2.23,1.15,4.53,2,6.89,2.55s4.51.83,6.46.83c3.38,0,5.69-.48,6.92-1.44,1.23-.96,1.85-2.25,1.85-3.87,0-1.17-.29-2.17-.88-2.99-.59-.82-1.67-1.46-3.26-1.9-1.58-.45-3.86-.67-6.81-.67h-3.17v-10.46h3.24c2.63,0,4.71-.23,6.25-.7,1.54-.47,2.65-1.11,3.33-1.92.68-.81,1.02-1.74,1.02-2.8,0-1.36-.53-2.37-1.58-3.03-1.06-.66-2.45-.99-4.19-.99-1.55,0-3.01.21-4.37.63-1.36.42-2.55.89-3.56,1.41-1.01.52-1.77.94-2.29,1.27l-5.78-9.3c2.14-1.46,4.58-2.69,7.34-3.7,2.76-1.01,6.37-1.51,10.83-1.51,5.31,0,9.48,1.06,12.52,3.17,3.04,2.11,4.56,5.02,4.56,8.73Z"/>
      <path class="cls-2" d="M48.64,99.59c0-2.49.73-4.24,2.2-5.25,1.47-1.01,3.23-1.51,5.3-1.51,1.95,0,3.64.51,5.07,1.51,1.43,1.01,2.15,2.76,2.15,5.25s-.72,4.09-2.15,5.14c-1.43,1.06-3.12,1.58-5.07,1.58-2.07,0-3.83-.53-5.3-1.58-1.47-1.06-2.2-2.77-2.2-5.14Z"/>
      <path class="cls-2" d="M104.25,65.11c0,2.44-.52,4.55-1.57,6.32-1.04,1.77-2.43,3.22-4.16,4.35-1.73,1.13-3.61,1.97-5.65,2.54v.21c4.11.52,7.28,1.77,9.53,3.75,2.24,1.98,3.36,4.8,3.36,8.44,0,2.82-.75,5.4-2.25,7.73-1.5,2.34-3.84,4.2-7.01,5.6-3.17,1.4-7.24,2.1-12.22,2.1-3.33,0-6.18-.25-8.52-.74-2.35-.49-4.63-1.17-6.83-2.04v-11.55c2.23,1.15,4.53,2,6.89,2.55s4.51.83,6.46.83c3.38,0,5.69-.48,6.92-1.44,1.23-.96,1.85-2.25,1.85-3.87,0-1.17-.29-2.17-.88-2.99-.59-.82-1.67-1.46-3.26-1.9-1.58-.45-3.86-.67-6.81-.67h-3.17v-10.46h3.24c2.63,0,4.71-.23,6.25-.7,1.54-.47,2.65-1.11,3.33-1.92.68-.81,1.02-1.74,1.02-2.8,0-1.36-.53-2.37-1.58-3.03-1.06-.66-2.45-.99-4.19-.99-1.55,0-3.01.21-4.37.63-1.36.42-2.55.89-3.56,1.41-1.01.52-1.77.94-2.29,1.27l-5.78-9.3c2.14-1.46,4.58-2.69,7.34-3.7,2.76-1.01,6.37-1.51,10.83-1.51,5.31,0,9.48,1.06,12.52,3.17,3.04,2.11,4.56,5.02,4.56,8.73Z"/>
    </g>
    <text class="cls-3" transform="translate(1.46 47.28)"><tspan x="0" y="0">nde</tspan></text>
  </g>
</svg>