<?xml version="1.0" encoding="UTF-8"?>
<svg id="Calque_2" data-name="Calque 2" xmlns="http://www.w3.org/2000/svg" viewBox="0 0 111 111.63">
  <defs>
    <style>
      .cls-1 {
        fill: #005cb9;
      }

      .cls-1, .cls-2 {
        stroke-width: 0px;
      }

      .cls-3 {
        font-family: OpenSansRoman-ExtraBold, 'Open Sans';
        font-size: 55.17px;
        font-variation-settings: 'wght' 800, 'wdth' 100;
        font-weight: 700;
      }

      .cls-3, .cls-2 {
        fill: #fff;
      }
    </style>
  </defs>
  <g id="Calque_1-2" data-name="Calque 1">
    <rect class="cls-1" y=".63" width="111" height="111" rx="20" ry="20"/>
    <g>
      <path class="cls-2" d="M44.52,95.47h-5.67v9.97h-13.74v-9.97H4.58v-10.21l21.41-31.31h12.86v31.13h5.67v10.39ZM25.11,85.08v-5.99c0-.54.01-1.22.04-2.04.02-.82.05-1.65.09-2.48.04-.83.07-1.54.11-2.11.04-.58.06-.89.09-.93h-.39c-.45,1.06-.86,1.93-1.23,2.62-.38.69-.87,1.51-1.48,2.45l-5.71,8.49h8.49Z"/>
      <path class="cls-2" d="M48.64,99.59c0-2.49.73-4.24,2.2-5.25,1.47-1.01,3.23-1.51,5.3-1.51,1.95,0,3.64.51,5.07,1.51,1.43,1.01,2.15,2.76,2.15,5.25s-.72,4.09-2.15,5.14c-1.43,1.06-3.12,1.58-5.07,1.58-2.07,0-3.83-.53-5.3-1.58-1.47-1.06-2.2-2.77-2.2-5.14Z"/>
      <path class="cls-2" d="M106.19,79.76c0,4.13-.33,7.83-.99,11.08s-1.71,6.02-3.15,8.29c-1.44,2.28-3.35,4.02-5.72,5.21-2.37,1.2-5.28,1.8-8.73,1.8-4.3,0-7.82-1.05-10.57-3.15-2.75-2.1-4.77-5.12-6.08-9.05-1.3-3.93-1.96-8.66-1.96-14.18s.59-10.32,1.78-14.28c1.19-3.96,3.14-6.99,5.86-9.1,2.72-2.11,6.38-3.17,10.95-3.17,4.3,0,7.81,1.05,10.55,3.15,2.74,2.1,4.76,5.13,6.08,9.09,1.31,3.96,1.97,8.73,1.97,14.32ZM82.84,79.76c0,3.36.12,6.18.37,8.45.25,2.28.72,3.99,1.41,5.12.69,1.14,1.68,1.71,2.98,1.71s2.28-.57,2.96-1.71c.68-1.14,1.15-2.84,1.41-5.11.26-2.27.39-5.09.39-8.47s-.13-6.25-.39-8.52c-.26-2.28-.73-4-1.41-5.16-.68-1.16-1.67-1.74-2.96-1.74s-2.28.58-2.98,1.74c-.69,1.16-1.16,2.88-1.41,5.16-.25,2.28-.37,5.12-.37,8.52Z"/>
    </g>
    <text class="cls-3" transform="translate(1.46 47.28)"><tspan x="0" y="0">nde</tspan></text>
  </g>
</svg>