<?xml version="1.0" encoding="UTF-8"?>
<svg id="System-File-Mono2" xmlns="http://www.w3.org/2000/svg" version="1.1" viewBox="0 0 208 256">
  <!-- Generator: Adobe Illustrator 29.5.0, SVG Export Plug-In . SVG Version: 2.1.0 Build 137)  -->
  <defs>
    <style>
      .st0 {
        fill: #fff;
      }
    </style>
  </defs>
  <g>
       <path class="st0" d="M187.8,15c3.1,0,5.9,2.7,5.9,5.9v145.1l-74.6,74.8H20.2c-3.1,0-5.9-2.7-5.9-5.9V21c0-3.2,2.6-5.9,5.9-5.9h167.7M190.6,0H17.4C7.8,0,0,7.9,0,17.5v221.1c0,9.6,7.8,17.5,17.4,17.5h107.9l82.6-82.9V17.5c0-9.6-7.8-17.5-17.4-17.5h.1Z"/>
  </g>
  <polygon class="st0" points="146.4 256 208 256 208 194.2 146.4 256"/>
  <g id="NDE">
    <path class="st0" d="M74.7,159.9h-14.4v-30.9c0-3.8-.7-6.7-2-8.6s-3.5-2.9-6.5-2.9-6.9,1.3-8.7,4.1c-1.8,2.7-2.7,7.2-2.7,13.4v24.9h-14.4v-53h11l1.9,6.8h.8c1.6-2.6,3.8-4.5,6.6-5.8s6-2,9.6-2c6.1,0,10.8,1.7,14,5s4.8,8.1,4.8,14.4v34.5h0Z"/>
    <path class="st0" d="M101.4,160.8c-6.2,0-11.1-2.4-14.6-7.2s-5.3-11.5-5.3-20.1,1.8-15.4,5.4-20.3c3.6-4.8,8.6-7.3,14.9-7.3s11.7,2.6,15.2,7.8h.5c-.7-3.9-1.1-7.5-1.1-10.6v-17h14.5v73.7h-11.1l-2.8-6.9h-.6c-3.3,5.2-8.3,7.8-15,7.8h0ZM106.4,149.3c3.7,0,6.4-1.1,8.1-3.2s2.7-5.8,2.8-10.9v-1.6c0-5.7-.9-9.8-2.6-12.2s-4.6-3.7-8.5-3.7-5.7,1.4-7.5,4.1-2.7,6.7-2.7,11.9.9,9.1,2.7,11.7c1.8,2.6,4.4,3.9,7.7,3.9h0Z"/>
    <path class="st0" d="M164.9,160.8c-8.5,0-15.1-2.4-19.9-7.1-4.8-4.7-7.2-11.4-7.2-20s2.2-15.7,6.6-20.6c4.4-4.8,10.5-7.3,18.3-7.3s13.3,2.1,17.4,6.4c4.1,4.3,6.2,10.2,6.2,17.7v7h-34c.2,4.1,1.4,7.3,3.6,9.6s5.4,3.5,9.5,3.5,6.2-.3,9-1,5.8-1.7,8.9-3.2v11.2c-2.5,1.3-5.2,2.2-8.1,2.8-2.9.6-6.4.9-10.5.9h.2ZM162.9,116.2c-3.1,0-5.4,1-7.2,2.9s-2.7,4.7-3,8.3h20.2c0-3.6-1-6.3-2.8-8.3-1.8-1.9-4.2-2.9-7.3-2.9h.1Z"/>
  </g>
</svg>