<?xml version="1.0" encoding="UTF-8"?>
<svg xmlns="http://www.w3.org/2000/svg" xmlns:xlink="http://www.w3.org/1999/xlink" width="24px" height="24px" viewBox="0 0 24 24" version="1.1">
<g id="surface1">
<path style=" stroke:none;fill-rule:nonzero;fill:rgb(19.215686%,51.764706%,76.862745%);fill-opacity:1;" d="M 15.292969 -0.0273438 C 15.546875 -0.0273438 15.796875 -0.0273438 16.050781 -0.0273438 C 16.640625 -0.0273438 17.230469 -0.0234375 17.824219 -0.0195312 C 18.496094 -0.015625 19.171875 -0.015625 19.847656 -0.015625 C 21.230469 -0.0117188 22.617188 -0.0078125 24 0 C 24.011719 1.4375 24.019531 2.878906 24.023438 4.316406 C 24.027344 4.984375 24.03125 5.652344 24.035156 6.320312 C 24.039062 6.902344 24.042969 7.488281 24.042969 8.070312 C 24.042969 8.378906 24.046875 8.6875 24.050781 8.996094 C 24.089844 12.84375 23.019531 16.449219 20.34375 19.296875 C 20.148438 19.5 20.148438 19.5 19.964844 19.742188 C 18.523438 21.523438 16.023438 22.808594 13.875 23.46875 C 13.769531 23.5 13.769531 23.5 13.664062 23.53125 C 12.007812 24.011719 10.417969 24.039062 8.707031 24.027344 C 8.453125 24.027344 8.203125 24.027344 7.949219 24.027344 C 7.359375 24.027344 6.769531 24.023438 6.175781 24.019531 C 5.503906 24.015625 4.828125 24.015625 4.152344 24.015625 C 2.769531 24.011719 1.382812 24.007812 0 24 C -0.0117188 22.5625 -0.0195312 21.121094 -0.0234375 19.683594 C -0.0273438 19.015625 -0.03125 18.347656 -0.0351562 17.679688 C -0.0390625 17.097656 -0.0429688 16.511719 -0.0429688 15.929688 C -0.0429688 15.621094 -0.046875 15.3125 -0.0507812 15.003906 C -0.0898438 11.15625 0.980469 7.550781 3.65625 4.703125 C 3.851562 4.5 3.851562 4.5 4.035156 4.257812 C 5.476562 2.476562 7.976562 1.191406 10.125 0.535156 C 10.195312 0.511719 10.265625 0.488281 10.335938 0.46875 C 11.992188 -0.0117188 13.582031 -0.0390625 15.292969 -0.0273438 Z M 15.292969 -0.0273438 "/>
<path style=" stroke:none;fill-rule:nonzero;fill:rgb(99.215686%,99.607843%,99.607843%);fill-opacity:1;" d="M 7.878906 7.582031 C 8.007812 7.582031 8.132812 7.582031 8.257812 7.585938 C 8.359375 7.585938 8.359375 7.585938 8.460938 7.585938 C 8.671875 7.585938 8.886719 7.585938 9.101562 7.585938 C 9.242188 7.589844 9.386719 7.589844 9.53125 7.589844 C 9.886719 7.589844 10.238281 7.59375 10.59375 7.59375 C 11.253906 11.6875 11.253906 11.6875 11.496094 13.449219 C 11.613281 14.28125 11.746094 15.109375 11.886719 15.9375 C 11.902344 16.027344 11.914062 16.121094 11.929688 16.210938 C 11.945312 16.289062 11.957031 16.371094 11.972656 16.449219 C 12.003906 16.714844 12 16.984375 12 17.25 C 11.039062 17.25 10.082031 17.25 9.09375 17.25 C 9 16.59375 9 16.59375 9 15.84375 C 7.949219 15.875 6.894531 15.90625 5.8125 15.9375 C 5.597656 16.371094 5.378906 16.804688 5.15625 17.25 C 4.136719 17.25 3.113281 17.25 2.0625 17.25 C 2.195312 16.921875 2.316406 16.644531 2.488281 16.34375 C 2.535156 16.257812 2.582031 16.175781 2.632812 16.085938 C 2.683594 15.996094 2.734375 15.90625 2.789062 15.8125 C 2.84375 15.71875 2.898438 15.625 2.953125 15.527344 C 3.5 14.566406 4.058594 13.609375 4.617188 12.65625 C 4.886719 12.191406 5.160156 11.726562 5.433594 11.261719 C 5.511719 11.125 5.511719 11.125 5.59375 10.988281 C 5.890625 10.472656 6.1875 9.960938 6.484375 9.445312 C 6.535156 9.359375 6.535156 9.359375 6.585938 9.273438 C 6.742188 9 6.902344 8.722656 7.058594 8.449219 C 7.113281 8.351562 7.171875 8.25 7.230469 8.152344 C 7.304688 8.019531 7.304688 8.019531 7.382812 7.886719 C 7.554688 7.59375 7.554688 7.59375 7.878906 7.582031 Z M 7.878906 7.582031 "/>
<path style=" stroke:none;fill-rule:nonzero;fill:rgb(99.215686%,99.607843%,99.607843%);fill-opacity:1;" d="M 12.5625 7.59375 C 13.550781 7.59375 14.542969 7.59375 15.5625 7.59375 C 15.589844 7.925781 15.613281 8.253906 15.640625 8.597656 C 15.667969 8.917969 15.691406 9.238281 15.71875 9.558594 C 15.734375 9.785156 15.753906 10.007812 15.769531 10.230469 C 15.796875 10.550781 15.820312 10.871094 15.847656 11.191406 C 15.855469 11.289062 15.863281 11.390625 15.871094 11.492188 C 15.910156 11.976562 15.957031 12.457031 16.03125 12.9375 C 16.105469 12.769531 16.105469 12.769531 16.183594 12.597656 C 16.375 12.175781 16.566406 11.753906 16.757812 11.332031 C 16.839844 11.152344 16.921875 10.96875 17.003906 10.789062 C 17.484375 9.71875 17.96875 8.65625 18.46875 7.59375 C 19.488281 7.59375 20.511719 7.59375 21.5625 7.59375 C 20.980469 8.828125 20.386719 10.050781 19.773438 11.273438 C 19.6875 11.445312 19.601562 11.621094 19.515625 11.792969 C 19.289062 12.246094 19.0625 12.695312 18.835938 13.148438 C 18.601562 13.609375 18.371094 14.074219 18.140625 14.539062 C 17.6875 15.441406 17.234375 16.347656 16.78125 17.25 C 15.667969 17.25 14.554688 17.25 13.40625 17.25 C 13.347656 16.953125 13.296875 16.6875 13.273438 16.390625 C 13.265625 16.28125 13.265625 16.28125 13.253906 16.167969 C 13.246094 16.085938 13.242188 16.007812 13.234375 15.921875 C 13.226562 15.835938 13.21875 15.753906 13.210938 15.664062 C 13.1875 15.382812 13.164062 15.101562 13.140625 14.820312 C 13.109375 14.421875 13.074219 14.023438 13.042969 13.625 C 13.035156 13.523438 13.027344 13.417969 13.015625 13.3125 C 12.957031 12.589844 12.894531 11.863281 12.828125 11.140625 C 12.816406 10.992188 12.816406 10.992188 12.804688 10.839844 C 12.769531 10.457031 12.734375 10.074219 12.703125 9.691406 C 12.679688 9.425781 12.65625 9.160156 12.632812 8.898438 C 12.625 8.820312 12.617188 8.742188 12.609375 8.660156 C 12.605469 8.589844 12.597656 8.515625 12.589844 8.441406 C 12.585938 8.378906 12.578125 8.316406 12.574219 8.253906 C 12.5625 8.035156 12.5625 7.8125 12.5625 7.59375 Z M 12.5625 7.59375 "/>
<path style=" stroke:none;fill-rule:nonzero;fill:rgb(0%,0%,0%);fill-opacity:1;" d="M 19.5 0 C 20.984375 0 22.46875 0 24 0 C 24 1.484375 24 2.96875 24 4.5 C 22.515625 4.5 21.03125 4.5 19.5 4.5 C 19.5 3.015625 19.5 1.53125 19.5 0 Z M 19.5 0 "/>
<path style=" stroke:none;fill-rule:nonzero;fill:rgb(21.960784%,56.862745%,80.392157%);fill-opacity:1;" d="M 8.34375 10.96875 C 8.375 10.96875 8.40625 10.96875 8.4375 10.96875 C 8.484375 11.347656 8.53125 11.730469 8.578125 12.109375 C 8.589844 12.21875 8.605469 12.328125 8.617188 12.4375 C 8.632812 12.542969 8.644531 12.648438 8.65625 12.753906 C 8.667969 12.851562 8.679688 12.945312 8.691406 13.042969 C 8.71875 13.3125 8.71875 13.3125 8.71875 13.78125 C 8.132812 13.78125 7.542969 13.78125 6.9375 13.78125 C 7.835938 11.855469 7.835938 11.855469 8.34375 10.96875 Z M 8.34375 10.96875 "/>
</g>
</svg>
