<?xml version="1.0" encoding="UTF-8"?>
<svg xmlns="http://www.w3.org/2000/svg" xmlns:xlink="http://www.w3.org/1999/xlink" width="24px" height="24px" viewBox="0 0 24 24" version="1.1">
<g id="surface1">
<path style=" stroke:none;fill-rule:nonzero;fill:rgb(20.392157%,52.156866%,77.254903%);fill-opacity:1;" d="M 15.292969 -0.0273438 C 15.546875 -0.0273438 15.796875 -0.0273438 16.050781 -0.0273438 C 16.640625 -0.0273438 17.230469 -0.0234375 17.824219 -0.0195312 C 18.496094 -0.015625 19.171875 -0.015625 19.847656 -0.015625 C 21.230469 -0.0117188 22.617188 -0.0078125 24 0 C 24.011719 1.4375 24.019531 2.878906 24.023438 4.316406 C 24.027344 4.984375 24.03125 5.652344 24.035156 6.320312 C 24.039062 6.902344 24.042969 7.488281 24.042969 8.070312 C 24.042969 8.378906 24.046875 8.6875 24.050781 8.996094 C 24.066406 10.617188 23.921875 12.113281 23.53125 13.6875 C 23.515625 13.753906 23.5 13.820312 23.480469 13.890625 C 22.851562 16.398438 21.023438 19.011719 19.03125 20.625 C 18.941406 20.699219 18.855469 20.769531 18.761719 20.84375 C 17.304688 22.011719 15.664062 22.917969 13.875 23.46875 C 13.769531 23.5 13.769531 23.5 13.664062 23.53125 C 12.007812 24.011719 10.417969 24.039062 8.707031 24.027344 C 8.453125 24.027344 8.203125 24.027344 7.949219 24.027344 C 7.359375 24.027344 6.769531 24.023438 6.175781 24.019531 C 5.503906 24.015625 4.828125 24.015625 4.152344 24.015625 C 2.769531 24.011719 1.382812 24.007812 0 24 C -0.0117188 22.5625 -0.0195312 21.121094 -0.0234375 19.683594 C -0.0273438 19.015625 -0.03125 18.347656 -0.0351562 17.679688 C -0.0390625 17.097656 -0.0429688 16.511719 -0.0429688 15.929688 C -0.0429688 15.621094 -0.046875 15.3125 -0.0507812 15.003906 C -0.0898438 11.15625 0.980469 7.550781 3.65625 4.703125 C 3.851562 4.5 3.851562 4.5 4.035156 4.257812 C 5.476562 2.476562 7.976562 1.191406 10.125 0.535156 C 10.195312 0.511719 10.265625 0.488281 10.335938 0.46875 C 11.992188 -0.0117188 13.582031 -0.0390625 15.292969 -0.0273438 Z M 15.292969 -0.0273438 "/>
<path style=" stroke:none;fill-rule:nonzero;fill:rgb(99.215686%,99.607843%,99.607843%);fill-opacity:1;" d="M 16.398438 6.570312 C 17.410156 7.4375 17.996094 8.53125 18.1875 9.84375 C 18.214844 10.214844 18.21875 10.582031 18.21875 10.953125 C 18.214844 11.101562 18.214844 11.101562 18.214844 11.253906 C 18.203125 11.972656 18.132812 12.625 17.90625 13.3125 C 17.875 13.417969 17.84375 13.523438 17.808594 13.632812 C 17.253906 15.355469 16.160156 16.816406 14.546875 17.671875 C 13.5 18.164062 12.5625 18.390625 11.40625 18.386719 C 11.28125 18.386719 11.28125 18.386719 11.152344 18.386719 C 9.742188 18.386719 8.628906 18.132812 7.5 17.25 C 7.414062 17.191406 7.328125 17.128906 7.242188 17.070312 C 6.582031 16.460938 6.28125 15.75 6 14.90625 C 5.964844 14.808594 5.929688 14.707031 5.894531 14.605469 C 5.785156 14.132812 5.785156 13.683594 5.789062 13.203125 C 5.789062 13.105469 5.789062 13.007812 5.789062 12.910156 C 5.800781 12.246094 5.835938 11.613281 6 10.96875 C 6.023438 10.871094 6.046875 10.773438 6.074219 10.675781 C 6.554688 8.929688 7.636719 7.367188 9.210938 6.441406 C 11.304688 5.289062 14.390625 5.132812 16.398438 6.570312 Z M 16.398438 6.570312 "/>
<path style=" stroke:none;fill-rule:nonzero;fill:rgb(21.568628%,51.764709%,76.47059%);fill-opacity:1;" d="M 13.558594 8.871094 C 14.074219 9.183594 14.28125 9.65625 14.4375 10.21875 C 14.582031 11.65625 14.324219 13.136719 13.476562 14.332031 C 13.046875 14.855469 12.535156 15.238281 11.847656 15.320312 C 10.617188 15.324219 10.617188 15.324219 10.125 14.90625 C 9.476562 14.101562 9.476562 13.171875 9.5625 12.1875 C 9.742188 10.980469 10.191406 9.84375 11.132812 9.050781 C 11.816406 8.585938 12.804688 8.53125 13.558594 8.871094 Z M 13.558594 8.871094 "/>
<path style=" stroke:none;fill-rule:nonzero;fill:rgb(85.882354%,12.941177%,15.686275%);fill-opacity:1;" d="M 19.5 0 C 20.984375 0 22.46875 0 24 0 C 24 1.484375 24 2.96875 24 4.5 C 22.515625 4.5 21.03125 4.5 19.5 4.5 C 19.5 3.015625 19.5 1.53125 19.5 0 Z M 19.5 0 "/>
</g>
</svg>
