<?xml version="1.0" encoding="UTF-8"?>
<svg xmlns="http://www.w3.org/2000/svg" xmlns:xlink="http://www.w3.org/1999/xlink" width="24px" height="24px" viewBox="0 0 24 24" version="1.1">
<g id="surface1">
<path style=" stroke:none;fill-rule:nonzero;fill:rgb(20%,52.54902%,77.254902%);fill-opacity:1;" d="M 14.476562 -0.0898438 C 14.757812 -0.0898438 15.035156 -0.0898438 15.3125 -0.0859375 C 16.03125 -0.0859375 16.75 -0.0742188 17.46875 -0.0625 C 18.203125 -0.0546875 18.941406 -0.0507812 19.679688 -0.046875 C 21.121094 -0.0351562 22.558594 -0.0195312 24 0 C 24.015625 1.566406 24.03125 3.136719 24.039062 4.703125 C 24.042969 5.433594 24.046875 6.160156 24.054688 6.890625 C 24.066406 7.59375 24.070312 8.300781 24.070312 9.003906 C 24.074219 9.273438 24.074219 9.539062 24.078125 9.804688 C 24.140625 13.910156 22.613281 17.238281 19.777344 20.179688 C 17.175781 22.6875 13.925781 24.128906 10.308594 24.105469 C 10.046875 24.101562 9.785156 24.097656 9.523438 24.089844 C 9.242188 24.089844 8.964844 24.089844 8.6875 24.085938 C 7.96875 24.085938 7.25 24.074219 6.53125 24.0625 C 5.796875 24.054688 5.058594 24.050781 4.320312 24.046875 C 2.878906 24.035156 1.441406 24.019531 0 24 C -0.015625 22.433594 -0.03125 20.863281 -0.0390625 19.296875 C -0.0429688 18.566406 -0.046875 17.839844 -0.0546875 17.109375 C -0.0664062 16.40625 -0.0703125 15.699219 -0.0703125 14.996094 C -0.0742188 14.726562 -0.0742188 14.460938 -0.078125 14.195312 C -0.140625 10.089844 1.386719 6.761719 4.222656 3.820312 C 7.117188 1.027344 10.515625 -0.167969 14.476562 -0.0898438 Z M 14.476562 -0.0898438 "/>
<path style=" stroke:none;fill-rule:nonzero;fill:rgb(96.862745%,98.039216%,99.215686%);fill-opacity:1;" d="M 2.4375 7.5 C 3.425781 7.5 4.417969 7.5 5.4375 7.5 C 5.5 9.046875 5.5625 10.59375 5.625 12.1875 C 5.761719 11.863281 5.894531 11.539062 6.035156 11.203125 C 6.164062 10.898438 6.164062 10.898438 6.292969 10.585938 C 6.472656 10.15625 6.648438 9.726562 6.828125 9.292969 C 6.910156 9.09375 6.992188 8.890625 7.078125 8.683594 C 7.15625 8.496094 7.230469 8.3125 7.308594 8.117188 C 7.5 7.6875 7.5 7.6875 7.6875 7.5 C 8.5625 7.472656 9.4375 7.492188 10.3125 7.5 C 10.375 9.109375 10.4375 10.71875 10.5 12.375 C 11.117188 10.828125 11.738281 9.28125 12.375 7.6875 C 13.363281 7.6875 14.355469 7.6875 15.375 7.6875 C 15.234375 8.394531 15.132812 8.808594 14.828125 9.421875 C 14.753906 9.574219 14.679688 9.722656 14.605469 9.878906 C 14.523438 10.039062 14.445312 10.199219 14.363281 10.367188 C 14.28125 10.53125 14.199219 10.699219 14.113281 10.871094 C 13.851562 11.40625 13.585938 11.9375 13.324219 12.46875 C 13.0625 13 12.800781 13.535156 12.539062 14.066406 C 12.375 14.398438 12.210938 14.726562 12.046875 15.058594 C 11.972656 15.210938 11.898438 15.359375 11.820312 15.515625 C 11.757812 15.648438 11.691406 15.777344 11.625 15.914062 C 11.417969 16.351562 11.242188 16.800781 11.0625 17.25 C 10.074219 17.25 9.082031 17.25 8.0625 17.25 C 7.96875 15.117188 7.96875 15.117188 7.875 12.9375 C 7.25 14.363281 6.648438 15.761719 6.1875 17.25 C 5.136719 17.25 4.082031 17.25 3 17.25 C 2.917969 16.222656 2.839844 15.195312 2.757812 14.167969 C 2.734375 13.820312 2.707031 13.472656 2.679688 13.125 C 2.527344 11.246094 2.398438 9.386719 2.4375 7.5 Z M 2.4375 7.5 "/>
<path style=" stroke:none;fill-rule:nonzero;fill:rgb(97.647059%,98.431373%,99.215686%);fill-opacity:1;" d="M 21.3125 7.839844 C 21.910156 8.144531 22.199219 8.398438 22.5 9 C 22.609375 9.507812 22.652344 9.980469 22.6875 10.5 C 21.757812 10.5 20.832031 10.5 19.875 10.5 C 19.75 10.253906 19.628906 10.003906 19.5 9.75 C 19.003906 9.75 18.511719 9.75 18 9.75 C 17.9375 10.058594 17.875 10.367188 17.8125 10.6875 C 18.019531 10.746094 18.222656 10.804688 18.4375 10.867188 C 18.707031 10.945312 18.980469 11.027344 19.253906 11.109375 C 19.390625 11.148438 19.523438 11.1875 19.664062 11.226562 C 20.753906 11.554688 21.476562 11.964844 22.125 12.9375 C 22.257812 13.894531 22.273438 14.867188 21.820312 15.738281 C 21.078125 16.691406 20.269531 17.113281 19.125 17.4375 C 17.667969 17.566406 16.300781 17.585938 15 16.875 C 14.53125 16.433594 14.164062 15.957031 13.875 15.375 C 13.875 14.941406 13.875 14.507812 13.875 14.0625 C 14.804688 14.0625 15.730469 14.0625 16.6875 14.0625 C 16.8125 14.371094 16.933594 14.679688 17.0625 15 C 17.28125 15.257812 17.28125 15.257812 17.882812 15.222656 C 18.582031 15.246094 18.582031 15.246094 19.125 14.8125 C 19.03125 14.347656 19.03125 14.347656 18.9375 13.875 C 18.648438 13.785156 18.648438 13.785156 18.355469 13.695312 C 18.101562 13.617188 17.84375 13.535156 17.589844 13.453125 C 17.464844 13.414062 17.335938 13.375 17.207031 13.335938 C 16.152344 12.996094 15.441406 12.570312 14.8125 11.625 C 14.683594 10.664062 14.699219 9.820312 15.09375 8.929688 C 16.847656 7.085938 19.007812 6.894531 21.3125 7.839844 Z M 21.3125 7.839844 "/>
<path style=" stroke:none;fill-rule:nonzero;fill:rgb(96.078431%,57.647059%,11.764706%);fill-opacity:1;" d="M 19.5 0 C 20.984375 0 22.46875 0 24 0 C 24 1.484375 24 2.96875 24 4.5 C 22.515625 4.5 21.03125 4.5 19.5 4.5 C 19.5 3.015625 19.5 1.53125 19.5 0 Z M 19.5 0 "/>
<path style=" stroke:none;fill-rule:nonzero;fill:rgb(28.235294%,62.352941%,83.137255%);fill-opacity:1;" d="M 7.875 12.5625 C 7.9375 12.5625 8 12.5625 8.0625 12.5625 C 8.0625 14.109375 8.0625 15.65625 8.0625 17.25 C 8 17.25 7.9375 17.25 7.875 17.25 C 7.8125 16.199219 7.75 15.144531 7.6875 14.0625 C 7.5 14.15625 7.5 14.15625 7.3125 14.25 C 7.5 13.691406 7.683594 13.136719 7.875 12.5625 Z M 7.875 12.5625 "/>
</g>
</svg>
